<?xml version="1.0" encoding="UTF-8"?>
<svg xmlns="http://www.w3.org/2000/svg" version="1.1" viewBox="0 0 1341.9 500">
  <!-- Generator: Adobe Illustrator 28.6.0, SVG Export Plug-In . SVG Version: 1.2.0 Build 709)  -->
  <g>
    <g id="Layer_1">
      <g>
        <path d="M1133,55.8h-17.8l-102.2,249.8h13.8c1.7,0,3.1-.5,4.2-1.4,1.2-1,2-2.1,2.5-3.4l85.7-212.1c.9-2.1,1.8-4.3,2.6-6.8.8-2.6,1.6-5.3,2.3-8.2,1.7,5.8,3.4,10.8,5.1,14.9l50.9,126.2h-60l-5.4,13.5h70.8l29.3,72.5c.5,1.4,1.3,2.6,2.4,3.5,1.1.9,2.4,1.3,4.1,1.3h13.9l-102.2-249.8Z"/>
        <path d="M839.2,190.4c10.9-1.3,20.8-3.8,29.5-7.6,8.8-3.7,16.3-8.5,22.4-14.4,6.3-6.1,11-13,14.3-20.9,3.3-7.9,5-16.6,5-26.1,0-21.5-7.2-37.8-21.6-48.9-14.2-11.2-35.7-16.8-64.4-16.8h-63.9v249.8h18.2v-113h32.6c2.5,0,4.5.1,6.2.4,1.8.2,3.3.6,4.4,1.2,1.3.5,2.5,1.2,3.4,2.1,1.1,1,2.1,2.1,3,3.4l80.1,101.3c1.2,1.8,2.4,3,3.7,3.7,1.4.6,3.1.9,5.1.9h15.6l-86-108c-2.2-2.9-4.7-5.3-7.6-7.1ZM822,179.1h-43.2v-109.1h45.7c22.3,0,39.2,4.3,50.7,12.9,11.6,8.6,17.4,21.8,17.4,39.5s-1.6,16.6-4.7,23.5c-3.2,6.9-7.9,12.9-14,17.8-6,5-13.4,8.8-22.2,11.5-8.7,2.6-18.6,3.9-29.7,3.9Z"/>
        <path d="M206.5,55.7l-102.2,249.8h13.7c1.7,0,3.1-.5,4.3-1.4,1.1-.9,2-2.1,2.5-3.4l85.5-211.9c.9-2.1,1.8-4.4,2.7-6.9.8-2.6,1.6-5.3,2.3-8.2,1.6,5.8,3.3,10.8,5.1,14.9l85.6,212.1c.6,1.4,1.4,2.6,2.5,3.5,1.1.9,2.4,1.3,4.1,1.3h13.9L224.4,55.7h-17.8Z"/>
        <path d="M601.3,210.1c0,11.6-1.8,22.5-5.3,32.6-3.4,10-8.4,18.7-15,26.1-6.6,7.5-14.7,13.3-24.2,17.5-9.4,4.1-20.1,6.2-32.1,6.2h0c-12,0-22.8-2.1-32.3-6.4-9.4-4.2-17.4-10-24-17.4-6.5-7.5-11.5-16.2-15-26.2-3.4-10.1-5.1-20.9-5.1-32.6V55.6h-18.2v154.5c0,13.7,2.2,26.6,6.5,38.6,4.3,11.9,10.6,22.3,18.7,31.3,8.3,8.8,18.2,15.7,29.9,20.8,11.7,5.1,24.9,7.6,39.5,7.6s27.7-2.5,39.3-7.6c11.8-5.1,21.8-12,29.9-20.8,8.2-9,14.5-19.4,18.9-31.3,4.3-12,6.5-24.9,6.5-38.6V55.6h-18v154.5Z"/>
        <path d="M117.9,354.5v89h-13.2v-89h13.2ZM239,399c0,6.7-1.1,12.8-3.2,18.3-2.1,5.5-5.1,10.3-9,14.4-3.9,4-8.5,7.1-14,9.4-5.4,2.2-11.4,3.3-18,3.3-6.6,0-12.6-1.1-18-3.3-5.5-2.3-10.1-5.4-14-9.4-3.9-4.1-6.9-8.9-9-14.4-2.1-5.5-3.2-11.6-3.2-18.3s1.1-12.7,3.2-18.3,5.1-10.4,9-14.4c3.9-4.1,8.5-7.2,14-9.4,5.4-2.3,11.4-3.4,18-3.4s12.6,1.1,18,3.4c5.5,2.2,10.1,5.3,14,9.4,3.9,4,6.9,8.8,9,14.4s3.2,11.7,3.2,18.3ZM225.5,399c0-5.3-.7-10.1-2.2-14.3-1.5-4.2-3.5-7.8-6.2-10.7s-5.9-5.2-9.7-6.8c-3.7-1.5-7.9-2.3-12.6-2.3s-8.9.8-12.7,2.3c-3.8,1.6-7,3.9-9.7,6.8-2.7,2.9-4.7,6.5-6.2,10.7-1.5,4.2-2.2,9-2.2,14.3s.7,10.1,2.2,14.3c1.5,4.2,3.5,7.8,6.2,10.7,2.7,2.9,5.9,5.2,9.7,6.7,3.8,1.5,8,2.3,12.7,2.3s8.9-.8,12.6-2.3c3.8-1.5,7-3.8,9.7-6.7s4.7-6.5,6.2-10.7c1.5-4.2,2.2-9,2.2-14.3ZM328.6,354.5v11h-28.3v78h-13.1v-78h-28.4v-11h69.8Z"/>
        <path d="M431.1,410.4v-10.3h806.4v10.3H431.1Z"/>
      </g>
    </g>
  </g>
</svg>